<svg xmlns="http://www.w3.org/2000/svg" viewBox="-3470 -853 16.948 16.194">
  <defs>
    <style>
      .cls-1 {
        fill: #707888;
      }
    </style>
  </defs>
  <g id="IVR" transform="translate(-3496 -1075)">
    <g id="Group_68" data-name="Group 68" transform="translate(26 224.168)">
      <path id="Path_86" data-name="Path 86" class="cls-1" d="M10.536,30.439a1.282,1.282,0,0,1-.225-.013,7.215,7.215,0,0,1-2.787-.806,14.4,14.4,0,0,1-4.768-3.725A12.9,12.9,0,0,1,.418,22.011a5.493,5.493,0,0,1-.409-2.378,2.517,2.517,0,0,1,.74-1.625L.762,18c.225-.211.436-.423.66-.66.119-.119.225-.238.343-.357a1.746,1.746,0,0,1,2.563-.013l.832.832.264.264c.185.172.37.357.542.542a1.745,1.745,0,0,1,0,2.589c-.238.251-.489.5-.74.74a5.312,5.312,0,0,0,.621.911l.013.013A9.582,9.582,0,0,0,8.212,25c.066.04.145.079.225.119.251-.251.5-.5.753-.74a1.812,1.812,0,0,1,1.281-.568,1.789,1.789,0,0,1,1.281.568L13.376,26a1.923,1.923,0,0,1,.608,1.374,1.783,1.783,0,0,1-.568,1.268l-.383.383q-.277.258-.515.515A2.451,2.451,0,0,1,10.536,30.439ZM1.871,19.145a.969.969,0,0,0-.277.634,3.907,3.907,0,0,0,.317,1.678,11.312,11.312,0,0,0,2.061,3.434,12.853,12.853,0,0,0,4.24,3.329,5.7,5.7,0,0,0,2.206.647,1.027,1.027,0,0,0,.938-.33c.2-.211.4-.409.594-.608l.357-.357.026-.026c.079-.079.106-.132.106-.159a.435.435,0,0,0-.145-.238l-1.651-1.625a.314.314,0,0,0-.172-.106c-.04,0-.092.026-.172.106v.013c-.33.317-.66.647-.977.977a.975.975,0,0,1-1.255.2c-.066-.04-.145-.079-.225-.119a5.011,5.011,0,0,1-.449-.238,10.72,10.72,0,0,1-2.761-2.47A6.2,6.2,0,0,1,3.6,22.236l-.013-.026a.956.956,0,0,1,.238-1.1L3.84,21.1c.33-.33.66-.647.977-.977.172-.172.172-.225,0-.4s-.33-.343-.515-.515c-.092-.092-.185-.185-.277-.264l-.819-.819c-.159-.145-.211-.119-.33,0l-.343.343C2.334,18.683,2.1,18.92,1.871,19.145Z" transform="translate(0.005 -16.412)"/>
    </g>
    <g id="Group_69" data-name="Group 69" transform="translate(34.454 222)">
      <path id="Path_87" data-name="Path 87" class="cls-1" d="M72.493,8.493H70.908A6.923,6.923,0,0,0,64,1.585V0A8.5,8.5,0,0,1,72.493,8.493Z" transform="translate(-64)"/>
    </g>
    <g id="Group_70" data-name="Group 70" transform="translate(34.454 225.117)">
      <path id="Path_88" data-name="Path 88" class="cls-1" d="M69.376,28.976H67.791A3.8,3.8,0,0,0,64,25.185V23.6A5.389,5.389,0,0,1,69.376,28.976Z" transform="translate(-64 -23.6)"/>
    </g>
  </g>
</svg>
