<svg xmlns="http://www.w3.org/2000/svg" viewBox="-3468 -753 13.09 16.64">
  <defs>
    <style>
      .cls-1 {
        fill: #707888;
      }
    </style>
  </defs>
  <g id="PlanSettings" transform="translate(-3496 -1077)">
    <path id="Path_91" data-name="Path 91" class="cls-1" d="M7.408,1.368V1.319A1.313,1.313,0,0,0,6.089,0H4.315A1.313,1.313,0,0,0,3,1.319v.049H0V3H3v.033A1.313,1.313,0,0,0,4.315,4.347H6.089A1.313,1.313,0,0,0,7.408,3.028V3H13.09V1.368H7.408ZM5.78,2.719H4.624V1.628H5.78Z" transform="translate(28 324)"/>
    <path id="Path_92" data-name="Path 92" class="cls-1" d="M5.34,76.819A1.313,1.313,0,0,0,4.022,75.5H2.247A1.313,1.313,0,0,0,.928,76.819v.049H0V78.5H.928v.033a1.313,1.313,0,0,0,1.319,1.319H4.022A1.313,1.313,0,0,0,5.34,78.528V78.5h7.75V76.868H5.34Zm-1.628,1.4H2.556V77.128H3.712Z" transform="translate(28 260.792)"/>
    <path id="Path_93" data-name="Path 93" class="cls-1" d="M11.674,39.619A1.313,1.313,0,0,0,10.355,38.3H8.58a1.313,1.313,0,0,0-1.319,1.319v.049H0V41.3H7.261v.033A1.313,1.313,0,0,0,8.58,42.647h1.775a1.336,1.336,0,0,0,1.319-1.27V41.3H13.09V39.668H11.674Zm-1.628,1.4H8.89V39.928h1.156Z" transform="translate(28 291.936)"/>
  </g>
</svg>
