<svg xmlns="http://www.w3.org/2000/svg" viewBox="-3209.145 -979 53.803 47">
  <defs>
    <style>
      .cls-1 {
        fill: #fff;
      }
    </style>
  </defs>
  <path id="Plan" class="cls-1" d="M48.079,8.929H39.15V4.906C39.15,2.191,36.6,0,33.492,0H20.311C17.2,0,14.653,2.191,14.653,4.906V8.9H5.724A5.751,5.751,0,0,0,0,14.62V41.276A5.73,5.73,0,0,0,5.724,47H48.079A5.73,5.73,0,0,0,53.8,41.276V14.62A5.723,5.723,0,0,0,48.079,8.929ZM17.923,4.906c0-.883,1.079-1.635,2.388-1.635H33.492c1.308,0,2.388.752,2.388,1.635V8.9H17.923ZM5.724,12.2H48.079a2.471,2.471,0,0,1,2.453,2.453v9.485H28.521V22.8a1.635,1.635,0,1,0-3.271,0v1.341H3.271V14.653A2.45,2.45,0,0,1,5.724,12.2ZM48.079,43.762H5.724a2.471,2.471,0,0,1-2.453-2.453V27.376H25.25v1.668a1.635,1.635,0,0,0,3.271,0V27.376H50.5v13.9A2.43,2.43,0,0,1,48.079,43.762Z" transform="translate(-3209.145 -979)"/>
</svg>
