<svg xmlns="http://www.w3.org/2000/svg" viewBox="-2533 -984 38.038 50.121">
  <defs>
    <style>
      .cls-1 {
        fill: #fff;
      }
    </style>
  </defs>
  <g id="QueuedBlasts" transform="translate(-2533 -984)">
    <path id="Path_155" data-name="Path 155" class="cls-1" d="M76.347,42.411a2.934,2.934,0,0,0-2.126-.911H62.036A2.946,2.946,0,0,0,59.1,44.47v8.2a2.925,2.925,0,0,0,2.936,2.97h1.586l-.911,5.67,7.594-5.67h3.949a2.946,2.946,0,0,0,2.936-2.97V44.5A3.051,3.051,0,0,0,76.347,42.411Zm-1.89,10.227a.261.261,0,0,1-.236.27H69.394l-2.97,2.228.371-2.228H62.036a.241.241,0,0,1-.236-.27V44.47a.261.261,0,0,1,.236-.27H74.254c.1,0,.135.068.169.068a.175.175,0,0,1,.068.135Z" transform="translate(-39.153 -27.493)"/>
    <path id="Path_156" data-name="Path 156" class="cls-1" d="M27.98,37.431H3.375V9.248h24.6v2.093h3.375v-5.1A6.252,6.252,0,0,0,25.111,0H6.244A6.252,6.252,0,0,0,0,6.244V43.877a6.252,6.252,0,0,0,6.244,6.244H25.111a6.252,6.252,0,0,0,6.244-6.244v-8.4H27.98ZM6.244,3.375H25.111A2.866,2.866,0,0,1,27.98,6.244v.641H3.375V6.244A2.866,2.866,0,0,1,6.244,3.375ZM25.111,46.746H6.244a2.866,2.866,0,0,1-2.869-2.869V39.793h24.6v4.084A2.866,2.866,0,0,1,25.111,46.746Z"/>
    <path id="Path_157" data-name="Path 157" class="cls-1" d="M1.924,0A1.924,1.924,0,1,1,0,1.924,1.924,1.924,0,0,1,1.924,0Z" transform="translate(13.703 40.839)"/>
  </g>
</svg>
