<svg xmlns="http://www.w3.org/2000/svg" viewBox="-2362 -523 22.032 18.626">
  <defs>
    <style>
      .cls-1 {
        fill: #707888;
      }
    </style>
  </defs>
  <g id="Refresh" transform="translate(-2362 -523)">
    <g id="Group_197" data-name="Group 197" transform="translate(0 0)">
      <path id="Path_235" data-name="Path 235" class="cls-1" d="M19.384,37.771a7.615,7.615,0,0,1-6.323-3.358H11.1a9.326,9.326,0,0,0,17.572-3.407h1.74L27.863,27.6l-2.549,3.407h1.642A7.619,7.619,0,0,1,19.384,37.771Z" transform="translate(-8.38 -20.836)"/>
      <path id="Path_236" data-name="Path 236" class="cls-1" d="M11,0A9.337,9.337,0,0,0,1.838,7.622H0L2.549,11,5.1,7.622H3.6A7.583,7.583,0,0,1,16.739,4.313l.319-.074H18.8A9.306,9.306,0,0,0,11,0Z" transform="translate(0 0)"/>
    </g>
  </g>
</svg>
