<svg xmlns="http://www.w3.org/2000/svg" viewBox="-2283.862 -1143.658 19.504 19.536">
  <defs>
    <style>
      .cls-1 {
        fill: #fff;
      }
    </style>
  </defs>
  <g id="Settings" transform="translate(-2284.062 -1143.658)">
    <g id="Group_83" data-name="Group 83" transform="translate(0.2)">
      <path id="Path_103" data-name="Path 103" class="cls-1" d="M10.783,19.536H9.041a1.072,1.072,0,0,1-1.049-.823l-.016-.081-.242-1.484a7.315,7.315,0,0,1-1.436-.6l-1.21.855a1.072,1.072,0,0,1-1.4-.113L2.459,16.068A1.1,1.1,0,0,1,2.313,14.7l.016-.032.871-1.21a6.89,6.89,0,0,1-.613-1.468l-1.565-.258-.065-.016A1.084,1.084,0,0,1,.2,10.68V8.937a1.072,1.072,0,0,1,.823-1.049L1.1,7.873l1.468-.242a7.522,7.522,0,0,1,.613-1.5l-.9-1.258A1.078,1.078,0,0,1,2.426,3.5L3.652,2.275a1.05,1.05,0,0,1,.758-.323.6.6,0,0,1,.177.016h.194L6.25,3.017A6.89,6.89,0,0,1,7.718,2.4L7.976.839,7.992.774A1.065,1.065,0,0,1,9.008,0h1.742A1.072,1.072,0,0,1,11.8.823L11.815.9l.242,1.468A8.042,8.042,0,0,1,13.59,3l1.194-.871a1.039,1.039,0,0,1,.661-.21,1.087,1.087,0,0,1,.774.323l1.226,1.226a1.1,1.1,0,0,1,.145,1.371l-.016.016L16.7,6.082a7.255,7.255,0,0,1,.613,1.468l1.565.258.065.016A1.084,1.084,0,0,1,19.7,8.857l-.016,1.775a1.085,1.085,0,0,1-.823,1.049l-.081.016-1.484.242a9.257,9.257,0,0,1-.613,1.484l.887,1.258a1.078,1.078,0,0,1-.145,1.371L16.2,17.278a1.078,1.078,0,0,1-.758.323.6.6,0,0,1-.177-.016h-.194L13.59,16.536a7.255,7.255,0,0,1-1.468.613l-.258,1.565-.032.081A1.126,1.126,0,0,1,10.783,19.536ZM9.767,17.6h.29l.177-1.016a1.5,1.5,0,0,1,1.113-1.242,5.93,5.93,0,0,0,1.468-.629l.065-.032a1.531,1.531,0,0,1,1.613.113l.839.6.21-.21-.613-.871a1.554,1.554,0,0,1-.065-1.646l.016-.016a5.142,5.142,0,0,0,.613-1.468l.016-.032a1.532,1.532,0,0,1,1.226-1.081l1.032-.177V9.583l-1.016-.161A1.5,1.5,0,0,1,15.51,8.308a5.93,5.93,0,0,0-.629-1.468l-.032-.065a1.565,1.565,0,0,1,.113-1.613l.6-.839-.21-.21-.855.629a1.528,1.528,0,0,1-1.629.065,6.013,6.013,0,0,0-1.516-.629A1.5,1.5,0,0,1,10.2,2.936l-.161-1H9.75L9.573,2.952A1.508,1.508,0,0,1,8.492,4.178l-.048.016a5.986,5.986,0,0,0-1.468.613l-.065.032A1.531,1.531,0,0,1,5.3,4.727l-.823-.581-.21.21.613.855a1.489,1.489,0,0,1,.081,1.646,5.41,5.41,0,0,0-.6,1.468A1.5,1.5,0,0,1,3.12,9.486l-1,.161v.29l1.016.177A1.508,1.508,0,0,1,4.362,11.2l.016.032A5.986,5.986,0,0,0,4.991,12.7l.032.065a1.531,1.531,0,0,1-.113,1.613L4.33,15.2l.21.21.887-.629a1.481,1.481,0,0,1,.855-.258,1.576,1.576,0,0,1,.758.21,6.319,6.319,0,0,0,1.436.6l.048.016a1.532,1.532,0,0,1,1.081,1.226Zm3.6-1.226Zm2.694-1.694ZM3.33,13.261ZM3.3,6.34Zm13.245-.065ZM3.765,4.856ZM14.848,3.6ZM6.427,3.162Z" transform="translate(-0.2)"/>
    </g>
    <g id="Group_84" data-name="Group 84" transform="translate(5.911 5.743)">
      <path id="Path_104" data-name="Path 104" class="cls-1" d="M39.633,43.666a4.033,4.033,0,1,1,4.033-4.033A4.035,4.035,0,0,1,39.633,43.666Zm0-6.13a2.1,2.1,0,1,0,2.1,2.1A2.093,2.093,0,0,0,39.633,37.536Z" transform="translate(-35.6 -35.6)"/>
    </g>
  </g>
</svg>
