<svg xmlns="http://www.w3.org/2000/svg" viewBox="-2533 -785 53.311 58.561">
  <defs>
    <style>
      .cls-1 {
        fill: #b7c2cc;
      }

      .cls-2 {
        fill: #148ece;
      }
    </style>
  </defs>
  <g id="SMSOutbound" transform="translate(-2533 -785)">
    <path id="Path_166" data-name="Path 166" class="cls-1" d="M47.639,54H38.273v3.241h9.366a2.448,2.448,0,0,1,2.431,2.431v2.4a.032.032,0,0,0-.032.032L26.671,78.921,3.273,62.07a.032.032,0,0,1-.032-.032v-2.4a2.448,2.448,0,0,1,2.431-2.431H15.718V54H5.671A5.657,5.657,0,0,0,0,59.671V89.389A5.678,5.678,0,0,0,5.671,95.06H47.639a5.678,5.678,0,0,0,5.671-5.671V59.671A5.678,5.678,0,0,0,47.639,54ZM50.07,66.023V87.931L34.838,76.977Zm-31.6,10.986L3.241,87.963V66.023ZM5.671,91.787a2.447,2.447,0,0,1-1.491-.519L21.162,79.051l.065-.065L25.7,82.227a1.66,1.66,0,0,0,1.88,0l4.472-3.208L49.1,91.3a2.447,2.447,0,0,1-1.491.519H5.671Z" transform="translate(0 -36.5)"/>
    <path id="Path_167" data-name="Path 167" class="cls-2" d="M51.917,13h5.12V24.176a.65.65,0,0,0,.648.648h7.421a.65.65,0,0,0,.648-.648V13h4.958a.612.612,0,0,0,.583-.356.723.723,0,0,0-.065-.681l-9.4-11.7a.648.648,0,0,0-1.037,0l-9.4,11.7a.586.586,0,0,0-.065.681A.668.668,0,0,0,51.917,13Z" transform="translate(-34.643)"/>
  </g>
</svg>
