<svg xmlns="http://www.w3.org/2000/svg" viewBox="-2875 -977 54.502 43">
  <defs>
    <style>
      .cls-1 {
        fill: #fff;
      }
    </style>
  </defs>
  <g id="Wallet" transform="translate(-2875 -977)">
    <path id="Path_149" data-name="Path 149" class="cls-1" d="M28.774,16.248H55.168a.874.874,0,1,0,0-1.748H28.774a.874.874,0,0,0,0,1.748Z" transform="translate(-18.146 -9.431)"/>
    <path id="Path_150" data-name="Path 150" class="cls-1" d="M105.7,64.866a3.566,3.566,0,1,0,3.566-3.566A3.581,3.581,0,0,0,105.7,64.866Zm5.034,0a1.468,1.468,0,1,1-1.468-1.468A1.477,1.477,0,0,1,110.734,64.866Z" transform="translate(-68.748 -39.87)"/>
    <path id="Path_151" data-name="Path 151" class="cls-1" d="M52.334,16.606H50.516V7.866h-.175V4.02A3.991,3.991,0,0,0,46.356,0H6.188A6.2,6.2,0,0,0,0,6.188v.035H0V33.281A9.743,9.743,0,0,0,9.719,43H48.034a2.492,2.492,0,0,0,2.482-2.482V33.736h1.818A2.178,2.178,0,0,0,54.5,31.568v-12.8A2.178,2.178,0,0,0,52.334,16.606ZM6.188,3.5H46.356a.5.5,0,0,1,.489.489V8.32a.5.5,0,0,1-.489.489H6.188A2.693,2.693,0,0,1,3.5,6.118,2.634,2.634,0,0,1,6.188,3.5ZM47.02,39.5H9.719A6.237,6.237,0,0,1,3.5,33.281V11.711a6.224,6.224,0,0,0,2.692.629H46.356a4.283,4.283,0,0,0,.664-.07v4.3h-6.5a8.565,8.565,0,1,0,0,17.13h6.5ZM51.7,30.939H40.518a5.768,5.768,0,0,1,0-11.537H51.7Z"/>
  </g>
</svg>
