<svg xmlns="http://www.w3.org/2000/svg" viewBox="-4701 2271.701 21.532 17.013">
  <defs>
    <style>
      .cls-1 {
        opacity: 0.855;
      }

      .cls-2 {
        fill: #fff;
      }
    </style>
  </defs>
  <g id="DropCall" class="cls-1" transform="translate(-4701 2271.701)">
    <path id="Path_263" data-name="Path 263" class="cls-2" d="M21.532,5.323a3.1,3.1,0,0,0-.726-2.016h0a7.163,7.163,0,0,0-2.5-1.774A16.621,16.621,0,0,0,12.5.081a19.121,19.121,0,0,0-7.984.968A9.32,9.32,0,0,0,1.21,2.9,3.075,3.075,0,0,0,.081,5.484v1.21A1.372,1.372,0,0,0,0,7.259a1.97,1.97,0,0,0,2.016,2.1H5.161a1.829,1.829,0,0,0,1.452-.565,1.907,1.907,0,0,0,.645-1.532V5.484h.081A2.051,2.051,0,0,1,7.9,5.323a13.064,13.064,0,0,1,4.435-.242,10.109,10.109,0,0,1,1.935.4V7.178a2.033,2.033,0,0,0,2.1,2.1h3.064a1.9,1.9,0,0,0,2.016-2.016A15.539,15.539,0,0,0,21.532,5.323ZM19.516,7.984H16.451c-.565,0-.806-.242-.806-.806V5.242a.953.953,0,0,0-.565-.887,7.147,7.147,0,0,0-2.5-.565,15.436,15.436,0,0,0-4.839.242c-.323.081-.565.161-.806.242-.081,0-.161.081-.242.081a.915.915,0,0,0-.726.968h0V7.259a.768.768,0,0,1-.161.565.768.768,0,0,1-.565.161H2.1c-.565,0-.806-.242-.806-.806V5.323a1.76,1.76,0,0,1,.726-1.532,8.858,8.858,0,0,1,2.9-1.613,17.547,17.547,0,0,1,5.806-.968,10.808,10.808,0,0,1,1.613.081,21.2,21.2,0,0,1,5.4,1.371,7.018,7.018,0,0,1,2.1,1.452,1.7,1.7,0,0,1,.4,1.21V7.259A.642.642,0,0,1,19.516,7.984Z" transform="translate(0 -0.004)"/>
    <path id="Path_264" data-name="Path 264" class="cls-2" d="M14.921,15.471l-1.694,1.613V12.245a.645.645,0,0,0-1.29,0v4.919l-1.694-1.694a.627.627,0,0,0-.887.887L12.179,19.1a1.146,1.146,0,0,0,.484.161,1.146,1.146,0,0,0,.484-.161l2.823-2.742a.633.633,0,0,0,0-.887C15.566,15.31,15.163,15.229,14.921,15.471Z" transform="translate(-1.776 -2.248)"/>
  </g>
</svg>
