<svg xmlns="http://www.w3.org/2000/svg" viewBox="-4700 2071.768 19.085 19.329">
  <defs>
    <style>
      .cls-1 {
        fill: #fff;
        opacity: 0.855;
      }
    </style>
  </defs>
  <path id="RepeatIVR" class="cls-1" d="M18.351,9.053a.643.643,0,0,0-.652.652A8.156,8.156,0,1,1,9.542,1.55a7.794,7.794,0,0,1,4.812,1.631l-1.631.082A.666.666,0,0,0,12.071,4a.7.7,0,0,0,.652.652H12.8l3.1-.163a.7.7,0,0,0,.489-.245,1.159,1.159,0,0,0,.163-.489l-.163-3.1A.773.773,0,0,0,15.659,0a.666.666,0,0,0-.652.734l.082,1.3A9.824,9.824,0,0,0,9.461.245a9.543,9.543,0,1,0,9.624,9.542C19,9.379,18.759,9.053,18.351,9.053Z" transform="translate(-4700 2071.768)"/>
</svg>
