<svg xmlns="http://www.w3.org/2000/svg" viewBox="-4701 2202.61 21.532 21.531">
  <defs>
    <style>
      .cls-1 {
        opacity: 0.855;
      }

      .cls-2 {
        fill: #fff;
      }
    </style>
  </defs>
  <g id="SendSMS" class="cls-1" transform="translate(-4701 2202.61)">
    <g id="Group_328" data-name="Group 328">
      <path id="Path_260" data-name="Path 260" class="cls-2" d="M16.475,21.532a.623.623,0,0,1-.408-.163l-5.954-5.057H2.773A2.75,2.75,0,0,1,0,13.539V2.773A2.75,2.75,0,0,1,2.773,0H18.759a2.75,2.75,0,0,1,2.773,2.773V13.539a2.75,2.75,0,0,1-2.773,2.773H17.127V20.8a.613.613,0,0,1-.408.571C16.638,21.45,16.556,21.532,16.475,21.532ZM2.773,1.3A1.462,1.462,0,0,0,1.3,2.773V13.539a1.462,1.462,0,0,0,1.468,1.468h7.585a.623.623,0,0,1,.408.163l5.057,4.241V15.659a.7.7,0,0,1,.652-.652h2.284a1.462,1.462,0,0,0,1.468-1.468V2.773A1.462,1.462,0,0,0,18.759,1.3H2.773Z"/>
    </g>
    <g id="Group_332" data-name="Group 332" transform="translate(6.362 7.83)">
      <g id="Group_329" data-name="Group 329">
        <ellipse id="Ellipse_37" data-name="Ellipse 37" class="cls-2" cx="0.897" cy="0.897" rx="0.897" ry="0.897"/>
      </g>
      <g id="Group_330" data-name="Group 330" transform="translate(3.507)">
        <ellipse id="Ellipse_38" data-name="Ellipse 38" class="cls-2" cx="0.897" cy="0.897" rx="0.897" ry="0.897"/>
      </g>
      <g id="Group_331" data-name="Group 331" transform="translate(6.933)">
        <ellipse id="Ellipse_39" data-name="Ellipse 39" class="cls-2" cx="0.897" cy="0.897" rx="0.897" ry="0.897"/>
      </g>
    </g>
  </g>
</svg>
