<svg xmlns="http://www.w3.org/2000/svg" viewBox="-4699 1869.834 17.78 21.531">
  <defs>
    <style>
      .cls-1 {
        opacity: 0.855;
      }

      .cls-2 {
        fill: #fff;
      }
    </style>
  </defs>
  <g id="Soundclip" class="cls-1" transform="translate(-4699 1869.834)">
    <path id="Path_266" data-name="Path 266" class="cls-2" d="M13.294,0H2.039A2.019,2.019,0,0,0,0,2.039V19.493a2.019,2.019,0,0,0,2.039,2.039h13.7a2.019,2.019,0,0,0,2.039-2.039V4.486Zm2.447,20.308H2.039a.731.731,0,0,1-.734-.734V2.039A.731.731,0,0,1,2.039,1.3H12.56V4.4a.557.557,0,0,0,.571.571h3.344V19.493A.8.8,0,0,1,15.741,20.308Z"/>
    <path id="Path_267" data-name="Path 267" class="cls-2" d="M8.659,14.3a.735.735,0,0,0-.408-.082,1.436,1.436,0,0,0-1.06.489,1.226,1.226,0,0,0-.163,1.794,1.246,1.246,0,0,0,.816.326,1.436,1.436,0,0,0,1.06-.489,1.31,1.31,0,0,0,.408-.9V11.694l2.61-.408v2.365a.735.735,0,0,0-.408-.082,1.436,1.436,0,0,0-1.06.489,1.226,1.226,0,0,0-.163,1.794,1.246,1.246,0,0,0,.816.326,1.436,1.436,0,0,0,1.06-.489,1.31,1.31,0,0,0,.408-.9V9.9l-3.915.652Z" transform="translate(-1.237 -1.826)"/>
  </g>
</svg>
