<svg xmlns="http://www.w3.org/2000/svg" viewBox="-4427 1849 15.186 16.35">
  <defs>
    <style>
      .cls-1 {
        fill: #00c689;
      }
    </style>
  </defs>
  <path id="StartCall" class="cls-1" d="M15.912,4.8c0-.159-.016-.333-.016-.507,0-.159,0-.333-.016-.507a1.812,1.812,0,0,0-.491-1.3A5.139,5.139,0,0,0,13.55,1.238,13.134,13.134,0,0,0,9.159.144C8.747.112,8.319.1,7.891.1A14.011,14.011,0,0,0,3.2.873,6.842,6.842,0,0,0,.773,2.2,2.126,2.126,0,0,0,0,3.917v.048c.016.19.016.4.016.618V5.3A1.17,1.17,0,0,0,1.264,6.564h2.41A1.165,1.165,0,0,0,4.91,5.328V3.822a.192.192,0,0,1,.016-.079l.032-.016A.836.836,0,0,0,5.2,3.647l.079-.032A3.374,3.374,0,0,1,5.7,3.489,11.228,11.228,0,0,1,9.238,3.33a6.915,6.915,0,0,1,1.728.412c.048.016.048.032.048.063V5.3a1.17,1.17,0,0,0,1.268,1.252h2.378A1.165,1.165,0,0,0,15.9,5.312V4.836Z" transform="translate(-4416.846 1865.408) rotate(-130)"/>
</svg>
