<svg xmlns="http://www.w3.org/2000/svg" viewBox="-4701 1935.663 21.532 21.531">
  <defs>
    <style>
      .cls-1 {
        opacity: 0.855;
      }

      .cls-2 {
        fill: #fff;
      }
    </style>
  </defs>
  <g id="TextToSpeech" class="cls-1" transform="translate(-4701 1935.663)">
    <path id="Path_256" data-name="Path 256" class="cls-2" d="M15.15,8.163C15.068,8.082,14.986,8,14.9,8a.3.3,0,0,0-.245.082l-.082.082c-.082.163-.163.326,0,.408a1.716,1.716,0,0,1,.408,1.223,1.949,1.949,0,0,1-.408,1.142.364.364,0,0,0,0,.408l.082.082a.3.3,0,0,0,.245.082h0c.082,0,.163-.082.245-.163a2.685,2.685,0,0,0,.489-1.55A1.8,1.8,0,0,0,15.15,8.163Z" transform="translate(-2.671 -1.475)"/>
    <path id="Path_257" data-name="Path 257" class="cls-2" d="M12.507,7.092c-.082-.082-.245,0-.326.082L10.3,8.642H9.326A.351.351,0,0,0,9,8.968v1.3a.351.351,0,0,0,.326.326H10.3l1.794,1.55a.3.3,0,0,0,.245.082h.163a.424.424,0,0,0,.163-.326V7.419A.424.424,0,0,0,12.507,7.092Z" transform="translate(-1.66 -1.302)"/>
    <path id="Path_258" data-name="Path 258" class="cls-2" d="M16.3,6.6a.3.3,0,0,0-.245.082l-.082.082a.306.306,0,0,0,0,.489,3.553,3.553,0,0,1,.9,2.365,3.9,3.9,0,0,1-.816,2.284.364.364,0,0,0,0,.408l.082.082a.3.3,0,0,0,.245.082h0c.082,0,.163-.082.245-.082A4.268,4.268,0,0,0,17.6,9.618a4.566,4.566,0,0,0-1.06-2.855C16.462,6.682,16.38,6.6,16.3,6.6Z" transform="translate(-2.923 -1.217)"/>
    <path id="Path_259" data-name="Path 259" class="cls-2" d="M18.759,0H2.773A2.75,2.75,0,0,0,0,2.773V13.539a2.75,2.75,0,0,0,2.773,2.773h7.34l5.954,5.057a.623.623,0,0,0,.408.163.3.3,0,0,0,.245-.082.613.613,0,0,0,.408-.571V16.312h1.631a2.75,2.75,0,0,0,2.773-2.773V2.773A2.858,2.858,0,0,0,18.759,0Zm1.387,13.539a1.462,1.462,0,0,1-1.468,1.468H16.393a.7.7,0,0,0-.652.652v3.752L10.684,15.17a.623.623,0,0,0-.408-.163h-7.5A1.462,1.462,0,0,1,1.3,13.539V2.773A1.462,1.462,0,0,1,2.773,1.3H18.759a1.462,1.462,0,0,1,1.468,1.468V13.539Z"/>
  </g>
</svg>
