<svg xmlns="http://www.w3.org/2000/svg" viewBox="-4700 2133.965 20.973 21.704">
  <defs>
    <style>
      .cls-1 {
        opacity: 0.855;
      }

      .cls-2 {
        fill: #fff;
      }
    </style>
  </defs>
  <g id="TransferCall" class="cls-1" transform="translate(-4700 2133.965)">
    <path id="Path_261" data-name="Path 261" class="cls-2" d="M14.764,14.189a1.874,1.874,0,0,0-1.387-.979,2.3,2.3,0,0,0-1.631.326c-.571.326-1.142.734-1.631,1.06l-.082-.082c-.163-.163-.408-.326-.489-.408a12.784,12.784,0,0,1-2.773-4,5.633,5.633,0,0,1-.734-2.039l.734-.489a2.221,2.221,0,0,1,.816-.652,2.015,2.015,0,0,0,.652-3.018,3.306,3.306,0,0,1-.408-.734c-.163-.245-.326-.408-.489-.652a11.574,11.574,0,0,0-.9-1.468A2.14,2.14,0,0,0,3.427.324c-.571.408-1.142.816-1.713,1.142A3.17,3.17,0,0,0,.247,3.26h0A9.562,9.562,0,0,0,.084,6.6a21.227,21.227,0,0,0,2.039,6.2,21.114,21.114,0,0,0,5.546,6.769,9.8,9.8,0,0,0,3.589,1.957,5.507,5.507,0,0,0,1.142.163,2.778,2.778,0,0,0,1.876-.652c.326-.245.734-.489,1.142-.734a1.706,1.706,0,0,0,.489-.326,2.092,2.092,0,0,0,.734-3.018C15.987,16.065,15.335,15.086,14.764,14.189ZM15.172,19l-.489.245a10.626,10.626,0,0,0-1.223.816,1.909,1.909,0,0,1-1.876.245,8.43,8.43,0,0,1-3.1-1.713,20.589,20.589,0,0,1-5.22-6.362A17.8,17.8,0,0,1,1.388,6.441a5.986,5.986,0,0,1,.163-2.773,1.8,1.8,0,0,1,.816-1.06C3.02,2.2,3.591,1.874,4.161,1.466a.78.78,0,0,1,1.223.245,11.574,11.574,0,0,1,.9,1.468,3.306,3.306,0,0,0,.408.734,3.306,3.306,0,0,1,.408.734c.326.571.245.9-.245,1.223a8.9,8.9,0,0,1-.9.489,4.951,4.951,0,0,1-.816.571.972.972,0,0,0-.489,1.06,9.936,9.936,0,0,0,.9,2.61,14.975,14.975,0,0,0,3.018,4.323,4.662,4.662,0,0,0,.652.571c.082.082.163.163.245.163a1,1,0,0,0,1.223.082h0c.571-.326,1.142-.734,1.794-1.142a.879.879,0,0,1,.652-.163,1.1,1.1,0,0,1,.571.489c.571.9,1.223,1.876,1.794,2.855A.852.852,0,0,1,15.172,19Z" transform="translate(-0.011 0.012)"/>
    <path id="Path_262" data-name="Path 262" class="cls-2" d="M23.674,8.558l-2.936-3.1a.634.634,0,0,0-.9.9l1.876,1.957H16.252a.7.7,0,0,0-.652.652.7.7,0,0,0,.652.652h5.383L19.76,11.575a.64.64,0,0,0,0,.9,1.159,1.159,0,0,0,.489.163,1.159,1.159,0,0,0,.489-.163l2.936-3.018A.64.64,0,0,0,23.674,8.558Z" transform="translate(-2.885 -0.963)"/>
  </g>
</svg>
