<svg xmlns="http://www.w3.org/2000/svg" viewBox="-4699 2004.123 18.758 19.166">
  <defs>
    <style>
      .cls-1 {
        opacity: 0.855;
      }

      .cls-2 {
        fill: #fff;
      }
    </style>
  </defs>
  <g id="Variable" class="cls-1" transform="translate(-4699 2004.123)">
    <g id="Group_324" data-name="Group 324">
      <path id="Path_254" data-name="Path 254" class="cls-2" d="M1.55,3.181a15.838,15.838,0,0,0,.163,1.957V5.22a7.571,7.571,0,0,1,.245,1.957c0,.816-.245,1.713-1.876,1.713H0v1.3H.082c1.3,0,1.876.571,1.876,1.713a15.838,15.838,0,0,1-.163,1.957,14.61,14.61,0,0,0-.163,1.957c0,2.2,1.223,3.344,3.507,3.344h.571V17.78H5.138c-1.223,0-1.876-.652-1.876-2.039a13.425,13.425,0,0,1,.163-1.713,16.213,16.213,0,0,0,.163-1.794,2.4,2.4,0,0,0-1.713-2.61,2.4,2.4,0,0,0,1.713-2.61A11.243,11.243,0,0,0,3.425,5.22c-.082-.816-.163-1.3-.163-1.794,0-1.387.571-2.039,1.876-2.039h.489V0H5.057C2.773,0,1.55,1.142,1.55,3.181Z"/>
    </g>
    <g id="Group_325" data-name="Group 325" transform="translate(13.049)">
      <path id="Path_255" data-name="Path 255" class="cls-2" d="M21.546,8.89c-1.713,0-1.876-.9-1.876-1.713a18.641,18.641,0,0,1,.163-2.039V5.057a7.4,7.4,0,0,0,.245-1.876c0-2.039-1.3-3.181-3.589-3.181H16V1.387h.489c1.3,0,1.876.652,1.876,2.039,0,.408-.082.9-.082,1.3a.49.49,0,0,1-.082.326v.082a12.217,12.217,0,0,0-.163,1.794,2.4,2.4,0,0,0,1.713,2.61,2.479,2.479,0,0,0-1.713,2.61,11.243,11.243,0,0,0,.163,1.794.735.735,0,0,0,.082.408,7.016,7.016,0,0,1,.082,1.3c0,1.387-.571,2.039-1.876,2.039H16v1.387h.571c1.631,0,3.507-.571,3.507-3.344a14.61,14.61,0,0,0-.163-1.957,15.838,15.838,0,0,1-.163-1.957c0-1.142.652-1.713,1.876-1.713h.082L21.546,8.89Z" transform="translate(-16)"/>
    </g>
  </g>
</svg>
