<svg xmlns="http://www.w3.org/2000/svg" viewBox="-7743 -1128.5 297.196 41">
  <defs>
    <style>
      .cls-1, .cls-2 {
        fill: #fff;
      }

      .cls-2 {
        font-size: 18px;
        font-family: FSElliotPro, FS Elliot Pro;
      }

      .cls-3 {
        fill: none;
        stroke: #6c95b1;
      }
    </style>
  </defs>
  <g id="GlobeLabslogo" transform="translate(-7827 -1168)">
    <g id="Page-1_1_" transform="translate(353.584 39.488)">
      <path id="Fill-1_1_" class="cls-1" d="M-65.283,30.226l9.617,9.617V33.231L-65.283,23.7-74.9,33.231v6.611Z" transform="translate(-7.479 -3.349)"/>
      <path id="Fill-2_1_" class="cls-1" d="M-127.8,21.9V41.133h19.233V36.5h-14.6V21.9Z" transform="translate(0 -3.094)"/>
      <g id="Group-14_1_" transform="translate(-127.8 0.012)">
        <path id="Fill-3_1_" class="cls-1" d="M-8.62,36.4h-8.844V33.649H-8.62a1.34,1.34,0,0,1,1.288,1.374A1.337,1.337,0,0,1-8.62,36.4m-.343-10.046a1.321,1.321,0,0,1,1.288,1.288,1.217,1.217,0,0,1-1.288,1.288h-8.586V26.265M-2.7,35.023a5.9,5.9,0,0,0-1.46-3.778,6.2,6.2,0,0,0,1.2-3.52A6.11,6.11,0,0,0-8.877,21.8H-22.1V40.947H-8.62A6.11,6.11,0,0,0-2.7,35.023" transform="translate(112.857 -2.996)"/>
        <path id="Fill-5_1_" class="cls-1" d="M36.653,26.351H50.047V21.8H36.653a5.927,5.927,0,0,0,0,11.849h7.642a1.4,1.4,0,0,1,0,2.748H30.9v4.551H44.295a5.927,5.927,0,0,0,0-11.849H36.653a1.4,1.4,0,0,1,0-2.748" transform="translate(105.364 -2.996)"/>
        <g id="Group-13_1_" transform="translate(0 0)">
          <path id="Fill-7_1_" class="cls-1" d="M-116.2,9.345h1.631V-.1H-116.2Z" transform="translate(126.16 0.1)"/>
          <path id="Fill-9_1_" class="cls-1" d="M-109.28,8.381a1.915,1.915,0,0,1-1.8-2.147,1.915,1.915,0,0,1,1.8-2.147,1.915,1.915,0,0,1,1.8,2.147c0,1.288-.687,2.147-1.8,2.147m0-5.581a3.361,3.361,0,0,0-3.52,3.435,3.381,3.381,0,0,0,3.52,3.52,3.452,3.452,0,0,0,3.606-3.52A3.433,3.433,0,0,0-109.28,2.8" transform="translate(125.679 -0.31)"/>
          <path id="Fill-10_1_" class="cls-1" d="M-123.163,5.5h1.975V7.642a4.577,4.577,0,0,1-1.631.343,3.18,3.18,0,0,1-3.263-3.349,3.043,3.043,0,0,1,3.177-3.263,4.689,4.689,0,0,1,2.49.773l.687-1.2A7.076,7.076,0,0,0-123.078,0,4.507,4.507,0,0,0-127.8,4.722a4.6,4.6,0,0,0,4.894,4.722,8.309,8.309,0,0,0,3.435-.773V4.207h-3.692V5.5Z" transform="translate(127.8 0.086)"/>
          <path id="Fill-11_1_" class="cls-1" d="M-99.68,7.971a1.915,1.915,0,0,1-1.8-2.147,1.915,1.915,0,0,1,1.8-2.147,1.915,1.915,0,0,1,1.8,2.147,1.823,1.823,0,0,1-1.8,2.147Zm-3.52-1.889a3.377,3.377,0,0,0,3.52,3.263,3.452,3.452,0,0,0,3.606-3.52A3.385,3.385,0,0,0-99.68,2.39a3.991,3.991,0,0,0-1.8.429V-.1H-103.2Z" transform="translate(124.322 0.1)"/>
          <path id="Fill-12_1_" class="cls-1" d="M-92.183,5.719a1.626,1.626,0,0,1,1.717-1.546A1.538,1.538,0,0,1-88.92,5.719ZM-90.465,2.8A3.339,3.339,0,0,0-93.9,6.235a3.4,3.4,0,0,0,3.606,3.52,5.576,5.576,0,0,0,2.662-.687l-.515-1.2a3.319,3.319,0,0,1-1.889.515,1.93,1.93,0,0,1-2.061-1.8h4.808V6.063A3.089,3.089,0,0,0-90.465,2.8Z" transform="translate(123.007 -0.31)"/>
        </g>
      </g>
    </g>
    <text id="Powered_by" data-name="Powered by" class="cls-2" transform="translate(84 65.048)"><tspan x="0" y="0">Powered by</tspan></text>
    <line id="Line_16" data-name="Line 16" class="cls-3" y2="41" transform="translate(202.5 39.5)"/>
  </g>
</svg>
